<svg t="1673525874842" class="icon" viewBox="0 0 1024 1024" version="1.1" xmlns="http://www.w3.org/2000/svg" p-id="23215" width="1417" height="1417"><path d="M468.494 326.375c-7.559 0-13.711-6.152-13.711-13.711 0-57.129-32.695-103.623-72.861-103.623-7.559 0-13.711-6.152-13.711-13.711s6.152-13.711 13.711-13.711c55.283 0 100.283 58.799 100.283 131.133 0 7.471-6.152 13.623-13.711 13.623z" fill="#454A57" p-id="23216"></path><path d="M556.736 315.301H375.418c-117.949 0-213.574 114.961-213.574 256.729s95.625 256.729 213.574 256.729c32.432 0 63.105-8.701 90.703-24.258 27.51 15.557 58.271 24.258 90.703 24.258 117.949 0 213.574-114.961 213.574-256.729s-95.712-256.729-213.662-256.729z" fill="#FFABAB" p-id="23217"></path><path d="M556.736 842.469c-31.553 0-62.051-7.559-90.703-22.324-28.652 14.854-59.063 22.324-90.703 22.324-125.244 0-227.197-121.289-227.197-270.439s101.953-270.439 227.285-270.439h181.318c125.332 0 227.285 121.289 227.285 270.439s-101.953 270.439-227.285 270.439z m-90.615-53.701l6.768 3.779c26.367 14.941 54.668 22.5 83.936 22.5 110.215 0 199.775-108.984 199.775-242.93S666.951 329.1 556.824 329.1H375.418c-110.215 0-199.775 108.984-199.775 243.018 0 133.945 89.648 242.93 199.775 242.93 29.268 0 57.48-7.559 83.936-22.5l6.767-3.78z" fill="#454A57" p-id="23218"></path><path d="M375.418 842.469c-125.332 0-227.285-121.289-227.285-270.439s101.953-270.439 227.285-270.439c7.559 0 13.711 6.152 13.711 13.711s-6.152 13.711-13.711 13.711c-110.215 0-199.775 108.984-199.775 243.018 0 133.945 89.648 242.93 199.775 242.93s199.863-108.984 199.863-242.93c0-7.559 6.152-13.711 13.711-13.711s13.711 6.152 13.711 13.711c0 149.149-101.953 270.438-227.285 270.438z" fill="#454A57" p-id="23219"></path><path d="M826.561 517.713c-66.182 0-132.803-18.193-192.48-52.734-68.73-39.639-123.398-98.174-155.479-166.201 9.668-0.791 19.424-1.23 29.18-1.23 66.182 0 132.803 18.193 192.48 52.734 68.73 39.639 123.311 98.262 155.479 166.201-9.669 0.878-19.425 1.23-29.18 1.23z" fill="#9AD665" p-id="23220"></path><path d="M507.781 311.346c63.809 0 127.969 17.578 185.625 50.889 59.941 34.629 108.809 84.111 140.449 141.68-2.461 0.088-4.834 0.088-7.295 0.088-63.809 0-127.969-17.578-185.625-50.889-59.941-34.629-108.809-84.111-140.449-141.68 2.373-0.088 4.834-0.088 7.295-0.088m0-27.51a365.873 365.873 0 0 0-49.307 3.34c30.762 75.234 88.682 143.525 168.75 189.756 63.984 36.914 133.066 54.58 199.424 54.58 16.699 0 33.135-1.143 49.307-3.34-30.762-75.234-88.682-143.525-168.75-189.756-63.984-36.914-133.154-54.58-199.424-54.58z" fill="#454A57" p-id="23221"></path></svg>